<svg width="640" height="640" viewBox="0 0 640 640" fill="none" xmlns="http://www.w3.org/2000/svg">
<g clip-path="url(#clip0_204_2)">
<circle cx="320" cy="320" r="320" fill="#2F3C42"/>
<rect x="62" y="294.2" width="516" height="51.6" rx="25.8" fill="#ECEFF1"/>
<path d="M178.1 165.2C156.734 165.2 139.4 182.534 139.4 203.9V216.8H126.5C105.134 216.8 87.8 234.134 87.8 255.5V384.5C87.8 405.866 105.134 423.2 126.5 423.2H139.4V436.1C139.4 457.466 156.734 474.8 178.1 474.8C199.466 474.8 216.8 457.466 216.8 436.1V203.9C216.8 182.534 199.466 165.2 178.1 165.2Z" fill="#0091EA"/>
<path d="M178.1 165.2C156.734 165.2 139.4 182.534 139.4 203.9V216.8H126.5C105.134 216.8 87.8 234.134 87.8 255.5V384.5C87.8 405.866 105.134 423.2 126.5 423.2H139.4V436.1C139.4 457.466 156.734 474.8 178.1 474.8C199.466 474.8 216.8 457.466 216.8 436.1V203.9C216.8 182.534 199.466 165.2 178.1 165.2Z" fill="#0091EA"/>
<path d="M461.9 165.2C483.266 165.2 500.6 182.534 500.6 203.9V216.8H513.5C534.866 216.8 552.2 234.134 552.2 255.5V384.5C552.2 405.866 534.866 423.2 513.5 423.2H500.6V436.1C500.6 457.466 483.266 474.8 461.9 474.8C440.534 474.8 423.2 457.466 423.2 436.1V203.9C423.2 182.534 440.534 165.2 461.9 165.2Z" fill="#0091EA"/>
</g>
<defs>
<clipPath id="clip0_204_2">
<rect width="640" height="640" fill="white"/>
</clipPath>
</defs>
</svg>
